# xmcd
#
# Track frame offsets:
#	150
#	17325
#	35177
#	52727
#	71107
#	90982
#	110070
#	133017
#	153422
#	173377
#	195050
#
# Disc length: 2868 seconds
#
# Revision: 3
# Processed by: cddbd v1.5.2PL0 Copyright (c) Steve Scherf et al.
# Submitted via: EasyCDDAExtractor 15.3.0.1
#
DISCID=7f0b320b
DTITLE=Cristian - Un Segundo En El Tiempo
DYEAR=1993
DGENRE=Latin
TTITLE0=Por Amor A Ti
TTITLE1=Es Mejor Asi
TTITLE2=Soy
TTITLE3=Lo Voy A Intentar
TTITLE4=Puerto Rico
TTITLE5=Canta Una Cancion
TTITLE6=Nunca Voy A Olvidarte
TTITLE7=Mujer Especial
TTITLE8=Fuiste Mia
TTITLE9=Un Segundo
TTITLE10=Nunca Jamas
EXTD=
EXTT0=
EXTT1=
EXTT2=
EXTT3=
EXTT4=
EXTT5=
EXTT6=
EXTT7=
EXTT8=
EXTT9=
EXTT10=
PLAYORDER=
